<svg xmlns="http://www.w3.org/2000/svg" viewBox="0 0 700 412" width="700" role="img" aria-label="Schematic of the digital section: one oscillator fanned out through series terminations to four four-channel ADCs and the DSP, with all converter data returning on a single shared TDM line"><style>
.hdr{font:600 10px 'Helvetica Neue',Arial,sans-serif;letter-spacing:.13em;fill:#5c6e73}
.ref{font:500 11px 'DejaVu Sans Mono',Menlo,monospace;fill:#101a1e}
.val{font:10px 'DejaVu Sans Mono',Menlo,monospace;fill:#5c6e73}
.pin{font:11px 'DejaVu Sans Mono',Menlo,monospace;fill:#5c6e73}
.rail{font:10px 'DejaVu Sans Mono',Menlo,monospace;fill:#5c6e73}
.note,.lbl{font:10.5px 'Helvetica Neue',Arial,sans-serif;fill:#5c6e73}
</style><rect width="700" height="412" fill="#f6f8f8"/><defs><marker id="ar" viewBox="0 0 10 10" refX="9" refY="5" markerWidth="6" markerHeight="6" orient="auto-start-reverse"><path d="M 0 0 L 10 5 L 0 10 z" fill="#101a1e"/></marker><marker id="ara" viewBox="0 0 10 10" refX="9" refY="5" markerWidth="6" markerHeight="6" orient="auto-start-reverse"><path d="M 0 0 L 10 5 L 0 10 z" fill="#0c6f7c"/></marker></defs><text x="24.0" y="24.0" text-anchor="start" class="hdr">DIGITAL SECTION &#8212; ONE CLOCK DOMAIN, ONE TDM BUS</text><text x="24.0" y="40.0" text-anchor="start" class="note">Sample instants are simultaneous across all four converters: the bus is serial, the sampling is not.</text><rect x="24.0" y="86.0" width="92.0" height="46.0" rx="2" fill="none" stroke="#101a1e" stroke-width="1.4"/><text x="70.0" y="107.0" text-anchor="middle" class="ref">OSC1</text><text x="70.0" y="120.0" text-anchor="middle" class="val">24.576 MHz</text><line x1="116.0" y1="109.0" x2="146.0" y2="109.0" stroke="#101a1e" stroke-width="1.4" marker-end="url(#ar)"/><rect x="150.0" y="80.0" width="84.0" height="58.0" rx="2" fill="none" stroke="#101a1e" stroke-width="1.4"/><text x="192.0" y="107.0" text-anchor="middle" class="ref">U10</text><text x="192.0" y="120.0" text-anchor="middle" class="val">clock fanout</text><polyline points="234.0,109.0 258.0,109.0 258.0,318.0" fill="none" stroke="#101a1e" stroke-width="1.4"/><circle cx="258.0" cy="162.0" r="2.6" fill="#101a1e"/><polyline points="258.0,162.0 272.0,162.0" fill="none" stroke="#101a1e" stroke-width="1.4"/><rect x="272.0" y="156.0" width="30" height="12" fill="none" stroke="#101a1e" stroke-width="1.4"/><text x="287.0" y="152.0" text-anchor="middle" class="ref">33R</text><text x="287.0" y="182.0" text-anchor="middle" class="val"></text><polyline points="302.0,162.0 330.0,162.0" fill="none" stroke="#101a1e" stroke-width="1.4"/><rect x="330.0" y="140.0" width="118.0" height="44.0" rx="2" fill="none" stroke="#101a1e" stroke-width="1.4"/><text x="389.0" y="160.0" text-anchor="middle" class="ref">U1  ADC</text><text x="389.0" y="173.0" text-anchor="middle" class="val">slots 0-3</text><line x1="278.0" y1="176.0" x2="330.0" y2="176.0" stroke="#0c6f7c" stroke-width="1.4" marker-end="url(#ara)"/><text x="274.0" y="180.0" text-anchor="end" class="val" fill="#0c6f7c">4 ch</text><polyline points="448.0,162.0 496.0,162.0" fill="none" stroke="#101a1e" stroke-width="1.4"/><circle cx="496.0" cy="162.0" r="2.6" fill="#101a1e"/><circle cx="258.0" cy="214.0" r="2.6" fill="#101a1e"/><polyline points="258.0,214.0 272.0,214.0" fill="none" stroke="#101a1e" stroke-width="1.4"/><rect x="272.0" y="208.0" width="30" height="12" fill="none" stroke="#101a1e" stroke-width="1.4"/><text x="287.0" y="204.0" text-anchor="middle" class="ref">33R</text><text x="287.0" y="234.0" text-anchor="middle" class="val"></text><polyline points="302.0,214.0 330.0,214.0" fill="none" stroke="#101a1e" stroke-width="1.4"/><rect x="330.0" y="192.0" width="118.0" height="44.0" rx="2" fill="none" stroke="#101a1e" stroke-width="1.4"/><text x="389.0" y="212.0" text-anchor="middle" class="ref">U2  ADC</text><text x="389.0" y="225.0" text-anchor="middle" class="val">slots 4-7</text><line x1="278.0" y1="228.0" x2="330.0" y2="228.0" stroke="#0c6f7c" stroke-width="1.4" marker-end="url(#ara)"/><text x="274.0" y="232.0" text-anchor="end" class="val" fill="#0c6f7c">4 ch</text><polyline points="448.0,214.0 496.0,214.0" fill="none" stroke="#101a1e" stroke-width="1.4"/><circle cx="496.0" cy="214.0" r="2.6" fill="#101a1e"/><circle cx="258.0" cy="266.0" r="2.6" fill="#101a1e"/><polyline points="258.0,266.0 272.0,266.0" fill="none" stroke="#101a1e" stroke-width="1.4"/><rect x="272.0" y="260.0" width="30" height="12" fill="none" stroke="#101a1e" stroke-width="1.4"/><text x="287.0" y="256.0" text-anchor="middle" class="ref">33R</text><text x="287.0" y="286.0" text-anchor="middle" class="val"></text><polyline points="302.0,266.0 330.0,266.0" fill="none" stroke="#101a1e" stroke-width="1.4"/><rect x="330.0" y="244.0" width="118.0" height="44.0" rx="2" fill="none" stroke="#101a1e" stroke-width="1.4"/><text x="389.0" y="264.0" text-anchor="middle" class="ref">U3  ADC</text><text x="389.0" y="277.0" text-anchor="middle" class="val">slots 8-11</text><line x1="278.0" y1="280.0" x2="330.0" y2="280.0" stroke="#0c6f7c" stroke-width="1.4" marker-end="url(#ara)"/><text x="274.0" y="284.0" text-anchor="end" class="val" fill="#0c6f7c">4 ch</text><polyline points="448.0,266.0 496.0,266.0" fill="none" stroke="#101a1e" stroke-width="1.4"/><circle cx="496.0" cy="266.0" r="2.6" fill="#101a1e"/><circle cx="258.0" cy="318.0" r="2.6" fill="#101a1e"/><polyline points="258.0,318.0 272.0,318.0" fill="none" stroke="#101a1e" stroke-width="1.4"/><rect x="272.0" y="312.0" width="30" height="12" fill="none" stroke="#101a1e" stroke-width="1.4"/><text x="287.0" y="308.0" text-anchor="middle" class="ref">33R</text><text x="287.0" y="338.0" text-anchor="middle" class="val"></text><polyline points="302.0,318.0 330.0,318.0" fill="none" stroke="#101a1e" stroke-width="1.4"/><rect x="330.0" y="296.0" width="118.0" height="44.0" rx="2" fill="none" stroke="#101a1e" stroke-width="1.4"/><text x="389.0" y="316.0" text-anchor="middle" class="ref">U4  ADC</text><text x="389.0" y="329.0" text-anchor="middle" class="val">slots 12-15</text><line x1="278.0" y1="332.0" x2="330.0" y2="332.0" stroke="#0c6f7c" stroke-width="1.4" marker-end="url(#ara)"/><text x="274.0" y="336.0" text-anchor="end" class="val" fill="#0c6f7c">4 ch</text><polyline points="448.0,318.0 496.0,318.0" fill="none" stroke="#101a1e" stroke-width="1.4"/><circle cx="496.0" cy="318.0" r="2.6" fill="#101a1e"/><polyline points="496.0,162.0 496.0,318.0" fill="none" stroke="#101a1e" stroke-width="1.4"/><line x1="496.0" y1="162.0" x2="496.0" y2="122.0" stroke="#101a1e" stroke-width="1.4" marker-end="url(#ar)"/><text x="470.0" y="358.0" text-anchor="start" class="val">SDATA &#8212; wired-OR, one slot each</text><rect x="540.0" y="86.0" width="160.0" height="110.0" rx="2" fill="none" stroke="#0c6f7c" stroke-width="1.4"/><text x="620.0" y="139.0" text-anchor="middle" class="ref">U20  DSP</text><text x="620.0" y="152.0" text-anchor="middle" class="val">SHARC+ / xcore.ai</text><polyline points="496.0,122.0 496.0,112.0 540.0,112.0" fill="none" stroke="#101a1e" stroke-width="1.4"/><polyline points="620.0,86.0 620.0,64.0 192.0,64.0 192.0,80.0" fill="none" stroke="#101a1e" stroke-width="1.4"/><text x="406.0" y="58.0" text-anchor="middle" class="val">MCLK / BCLK / FSYNC / RESET</text><rect x="540.0" y="216.0" width="160.0" height="40.0" rx="2" fill="none" stroke="#101a1e" stroke-width="1.4"/><text x="620.0" y="234.0" text-anchor="middle" class="ref">U21</text><text x="620.0" y="247.0" text-anchor="middle" class="val">QSPI boot flash</text><rect x="540.0" y="268.0" width="160.0" height="40.0" rx="2" fill="none" stroke="#101a1e" stroke-width="1.4"/><text x="620.0" y="286.0" text-anchor="middle" class="ref">U22</text><text x="620.0" y="299.0" text-anchor="middle" class="val">EEPROM: calibration</text><polyline points="620.0,196.0 620.0,216.0" fill="none" stroke="#101a1e" stroke-width="1.4"/><polyline points="620.0,256.0 620.0,268.0" fill="none" stroke="#101a1e" stroke-width="1.4"/><text x="268.0" y="382.0" text-anchor="start" class="note">33R series on every clock branch. At 24.576 MHz a 545 mm board is a</text><text x="268.0" y="396.0" text-anchor="start" class="note">transmission line, so clocks are fanned out, never daisy-chained.</text></svg>